<?xml version="1.0" encoding="UTF-8" standalone="no"?>
<svg width="64px" height="64px" viewBox="0 0 64 64" version="1.1" xmlns="http://www.w3.org/2000/svg" xmlns:xlink="http://www.w3.org/1999/xlink">
<style type="text/css">
.st0{fill-rule:evenodd;clip-rule:evenodd;fill:#0066A6;}
.st1{fill-rule:evenodd;clip-rule:evenodd;fill:#009482;}
.st2{fill:#1F1A17;}
</style>
<path class="st0" d="M55.4,21.7l-3-3l-5,5c-1.2,1-2.9,1-3.9,0c-1-1-1-2.7,0-3.8l5-4.9l-3-3.2l-5,4.9c-2.7,2.7-2.7,7.3,0,10.1    c2.7,2.6,7.2,2.6,9.9,0v-0.1L55.4,21.7z M25.1,11.8l-3,3.2l5,5c1,1,1,2.7,0,3.8c-1,1-2.7,1-3.8,0l-5-5l-3.2,3.2l5,5    c2.7,2.6,7.2,2.6,9.9,0c2.7-2.7,2.7-7.3,0-10.1L25.1,11.8z M15.1,42l3.2,3l5-5c1-1,2.7-1,3.8,0c1,1,1,2.9,0,3.9l-5,5l3,3L30,47    c2.7-2.7,2.7-7.2,0-9.9c-2.7-2.8-7.2-2.8-9.9,0L15.1,42z M45.4,52l3-3l-5-5c-1-1-1-2.9,0-3.9c1-1,2.7-1,3.9,0l5,5l3-3l-5-5    c-2.7-2.7-7.2-2.7-9.9,0c-2.7,2.7-2.7,7.2,0,9.9"></path>
<path class="st1" d="M61.2,28.9c1.7,0,3,1.3,3,3c0,1.7-1.3,3.2-3,3.2c-1.7,0-3.2-1.5-3.2-3.2C58.1,30.2,59.6,28.9,61.2,28.9z     M9.4,35c-1.7,0-3.2-1.5-3.2-3.2c0-1.7,1.5-3,3.2-3c1.7,0,3,1.3,3,3C12.4,33.6,11.1,35,9.4,35z M26.1,34.1c1.2,0,2.1-1,2.1-2.2    c0-1.2-0.9-2.1-2.1-2.1H13c0.4,0.7,0.7,1.3,0.7,2.1c0,0.8-0.3,1.6-0.7,2.2H26.1z M44.4,29.8c-1.2,0-2.1,0.9-2.1,2.1    c0,1.2,0.9,2.2,2.1,2.2h13.1c-0.4-0.7-0.5-1.5-0.5-2.2c0-0.8,0.1-1.5,0.5-2.1H44.4z M32.2,6c0-1.7,1.3-3.2,3-3.2s3.2,1.5,3.2,3.2    s-1.5,3-3.2,3S32.2,7.7,32.2,6z M38.4,57.8c0,1.7-1.5,3-3.2,3s-3-1.3-3-3c0-1.7,1.3-3.2,3-3.2C36.9,54.7,38.4,56.2,38.4,57.8z     M33.2,22.7c0,1.2,0.9,2.2,2.1,2.2c1.2,0,2.2-1,2.2-2.2V9.6c-0.7,0.4-1.5,0.7-2.2,0.7c-0.8,0-1.6-0.3-2.1-0.7V22.7z M37.5,41.1    c0-1.3-1-2.2-2.2-2.2s-2.1,0.9-2.1,2.2v12.9c0.5-0.4,1.3-0.5,2.1-0.5c0.8,0,1.6,0.1,2.2,0.5"></path>
</svg>